<?xml version="1.0" encoding="UTF-8" standalone="no"?><!DOCTYPE svg PUBLIC "-//W3C//DTD SVG 1.1//EN" "http://www.w3.org/Graphics/SVG/1.1/DTD/svg11.dtd"><svg width="100%" height="100%" viewBox="0 0 23150 23146" version="1.1" xmlns="http://www.w3.org/2000/svg" xmlns:xlink="http://www.w3.org/1999/xlink" xml:space="preserve" xmlns:serif="http://www.serif.com/" style="fill-rule:evenodd;clip-rule:evenodd;stroke-linejoin:round;stroke-miterlimit:2;"><g id="Layer_x0020_1"><g id="_1473324886368"><path id="Line" d="M11635.2,1864.58c5113.88,0 9309.04,3923.61 9734.38,8924.29l-6082.29,0c-361.979,-1719.79 -1887.15,-3014.06 -3715.62,-3014.06c-1828.3,0.001 -3353.3,1294.45 -3715.45,3014.06l-5955.54,0c429.858,-5000.88 4625.17,-8924.29 9734.38,-8924.29l0.171,0l-0.013,0Zm2031.95,8924.29c90.45,244.271 140.279,506.771 140.279,782.813l4.513,-0.001c-0,276.042 -49.825,538.542 -140.28,782.813c-316.666,850.871 -1135.94,1452.78 -2095.31,1452.78c-959.375,0 -1778.47,-606.425 -2095.31,-1452.78c-92.97,-250.504 -140.475,-515.608 -140.275,-782.813l-4.516,0.001c-0,-276.042 49.829,-538.542 140.279,-782.813c316.667,-850.867 1135.94,-1452.78 2095.31,-1452.78c959.375,0 1778.47,606.421 2095.31,1452.78Zm-2158.68,10494.6c-5113.88,0 -9309.04,-3923.61 -9734.38,-8924.29l6082.29,0c361.98,1719.62 1887.15,3014.06 3715.45,3014.06c1828.3,-0 3353.47,-1294.44 3715.62,-3014.06l5960.08,0c-429.863,4996.17 -4625.17,8924.29 -9738.88,8924.29l-0.2,0Zm63.366,-21283.5c-6390.08,0 -11571.9,5181.58 -11571.9,11571.9c0,6390.08 5181.75,11571.9 11571.9,11571.9c6390.08,0 11576.4,-5177.25 11576.4,-11571.9c0,-6394.62 -5181.75,-11571.9 -11576.4,-11571.9Z" style="fill-rule:nonzero;"/></g></g></svg>